<?xml version="1.0" encoding="utf-8"?>
<!-- Generator: Adobe Illustrator 19.2.1, SVG Export Plug-In . SVG Version: 6.00 Build 0)  -->
<svg version="1.1" id="layer" xmlns="http://www.w3.org/2000/svg" xmlns:xlink="http://www.w3.org/1999/xlink" x="0px" y="0px"
	 viewBox="0 200 652 300" style="enable-background:new 0 200 652 300;" xml:space="preserve">
<style type="text/css">
	.st0{fill:#0D3149;}
	.st1{fill:#EA8B31;}
	.st2{filter:url(#Adobe_OpacityMaskFilter);}
	.st3{fill:#FFFFFF;}
	.st4{mask:url(#b_1_);fill:#EA8B31;}
	.st5{filter:url(#Adobe_OpacityMaskFilter_1_);}
	.st6{mask:url(#d_1_);fill:#EA8B31;}
</style>
<g>
	<path class="st0" d="M40.8,296c10.3-0.2,14.6,0.4,14.6-10.6c0-9.5-5.8-9.3-14.6-9.6V296z M40.8,261.1c9-0.5,13.2,0,13.2-9.7
		c0-8.1-6-7.7-13.2-7.7C40.8,243.7,40.8,261.1,40.8,261.1z M20.3,310.7v-81.8h26.6c15.5,0,27.6,4.7,27.6,21.2
		c0,7.2-2.8,13.6-9.9,17.2v0.2c9.3,5,11.3,9.4,11.3,19.5c0,16.6-10,23.7-26.7,23.7C49.2,310.7,20.3,310.7,20.3,310.7z M119.8,252.7
		c0-5-0.5-11-7.2-11c-6.5,0-7.3,6-7.3,11v33.6c0,4.7,0.8,11.7,7.5,11.7c6.6,0,7.1-7,7.1-11.7V252.7z M140.3,284.7
		c0,18.4-6.9,28-27.6,28c-20.8,0-28-9.6-28-28v-33.3c0-15.7,10-24.4,28-24.4c18,0,27.6,8.7,27.6,24.4
		C140.3,251.4,140.3,284.7,140.3,284.7z M149.2,310.7v-81.8h20.5v65.4h25.1v16.4H149.2 M201,310.7v-81.8h20.5v65.4h25.1v16.4H201
		 M253.8,310.7v-81.8h47v16.4h-26.5v15H300v16.4h-25.7v17.7h27.9v16.4H253.8 M352.5,310.8l-0.9-7.3h-0.2c-4.2,7-8.9,9.2-17.7,9.2
		c-17.4,0-23-11.2-23-26.1V253c0-17.8,8.7-26.1,27.5-26.1c17.5,0,27.9,7,27.9,23.7v6.1h-20.5v-4.5c0-7-0.9-10.5-6.4-10.6
		c-6.4-0.1-7.9,3.2-7.9,8.5v40.5c0,4.6,2.2,7.3,7.6,7.3c7,0,7.2-5.2,7.2-10.5v-6.4h-7.4v-14.7h27.9v44.5H352.5 M397.1,263.7h7
		c6,0,7.3-5.1,7.3-10.1c0-9.7-4.3-10.1-14.3-9.9C397.1,243.7,397.1,263.7,397.1,263.7z M397.1,310.7h-20.5v-81.8h30
		c16.8,0,25.2,6.3,25.2,22.6c0,8.7-2.2,14.9-10.8,18.6v0.2c5.7,1.2,9.8,4.9,10.1,10.6c0.6,6.5,0.7,20.6,1.9,25.8
		c0.5,1.1,1,2.1,2,2.8v1.1h-22.4c-0.6-1.5-1-3.1-1.2-4.7c-0.3-7.2,0.1-14-0.5-19c-0.6-5-2.2-8.3-7-8.6h-6.8
		C397.1,278.5,397.1,310.7,397.1,310.7z M469.1,243.8h-0.2l-6,36.6h11.9L469.1,243.8z M437.6,310.7l19.1-81.8h24.7l19,81.8h-20.8
		l-2.9-15.9h-16.1l-2.5,15.9H437.6L437.6,310.7z M533.9,243.8h-0.2l-6,36.6h11.9L533.9,243.8z M502.4,310.7l19.1-81.8h24.7l19,81.8
		h-20.8l-2.9-15.9h-16.1l-2.5,15.9H502.4z M572,310.7v-81.8h48.3v16.4h-27.8v14.5h25.5v16.4h-25.5v34.6H572"/>
	<path class="st1" d="M55.9,347.2h-4.6v-8.7h4.3c2.2,0,3.7,0.6,3.7,4.1C59.3,345.8,57.8,347,55.9,347.2z M65.1,354.8
		c0-3-1-5.2-4.5-5.7V349c3.9-0.5,4.8-4.1,4.8-7.6c0-5.8-3.8-7.5-8.9-7.5H45.4v31.4h5.9v-13.5h1c1.7,0,3.4,0,5,0.4c2,0.6,2,3.2,2,5.1
		c0,2.1-0.1,5.9,0.6,7.9h6.4v-0.6C64.9,363.8,65.1,356.1,65.1,354.8z M99.5,360.7H88.8V351h9.8v-4.6h-9.8v-7.9h10.6v-4.6H83v31.4
		h16.5V360.7 M134.6,355.9l0.1-1.8h-5.9c-0.1,2,0.3,7.2-3,7.2c-4,0-4.2-4.2-4.2-6.8v-8.7c0-2.4-0.4-7.9,4.2-7.9
		c2.9,0,2.7,3.8,2.9,5.8h5.8c0-0.8,0-1.6-0.1-2.4c-0.4-5.4-3.3-8-8.6-8.1c-9.4,0-10,5.9-10.2,13.9v4.5c0,8.4,0.6,14.5,10.2,14.5
		C132.4,366,134.3,361.6,134.6,355.9 M162.3,341c-0.7,1.8-1.5,3.5-1.9,5.9h-0.1c-0.3-1.7-0.7-3.3-1.4-4.8l-3.3-8.2h-6.4l8.2,18v13.3
		h5.9v-13.3l8.3-18h-6.4L162.3,341 M196.6,366c6.5,0,8.4-4.4,8.7-10.1l0.1-1.8h-5.9c-0.1,2,0.3,7.2-3,7.2c-4,0-4.2-4.2-4.2-6.8v-8.7
		c0-2.4-0.4-7.9,4.2-7.9c2.9,0,2.7,3.8,2.9,5.8h5.8c0-0.8,0-1.6-0.1-2.4c-0.4-5.4-3.3-8-8.6-8.1c-9.4,0-10,5.9-10.2,13.9v4.5
		C186.4,359.9,187,366,196.6,366 M228.2,333.9h-5.9v31.4H239v-4.6h-10.9V333.9 M255.4,365.3h5.9v-31.4h-5.9V365.3z M284.9,359.4
		c0-2.5-0.1-5.6-0.3-8.8c-0.2-3.2-0.4-6.4-0.6-9h0.1c1.4,4.9,2.6,8.7,4.2,12.5l4.6,11.2h6.1v-31.4h-5.9v6.1c0,2.8,0.1,5.8,0.3,8.8
		c0.2,3,0.4,6.1,0.6,8.9h-0.1c-1.4-5.1-2.7-8.8-4.2-12.5l-4.6-11.4h-6.1v31.4h5.9V359.4"/>
	<g transform="translate(7 33)">
		<defs>
			<filter id="Adobe_OpacityMaskFilter" filterUnits="userSpaceOnUse" x="37.7" y="300.2" width="291.9" height="83">
				<feColorMatrix  type="matrix" values="1 0 0 0 0  0 1 0 0 0  0 0 1 0 0  0 0 0 1 0"/>
			</filter>
		</defs>
		<mask maskUnits="userSpaceOnUse" x="37.7" y="300.2" width="291.9" height="83" id="b_1_">
			<g class="st2">
				<path id="a_1_" class="st3" d="M37.7,300.2h291.9V383H37.7V300.2z"/>
			</g>
		</mask>
		<path class="st4" d="M325,328.7L325,328.7l0.1,3.6h4.4v-16.9h-9.7v4.6h4.1c0.1,4.7-1,8.3-4.3,8.3c-4,0-4.2-4.2-4.2-6.8v-8.7
			c0-2.4-0.4-7.9,4.2-7.9c4,0.2,4.2,2.7,4.3,5.9h5.9c0-1.3,0-2.6-0.3-3.8c-1.3-5.4-4.8-6.7-9.8-6.8c-9.4,0-10,5.9-10.2,13.9v4.5
			c0,8.4,0.6,14.5,10.2,14.5C321.6,332.8,323.8,331.9,325,328.7 M47.1,362.5c-1.8-1.2-3.3-2.1-3.3-4.5c0-2.1,1.3-2.9,3.2-2.9
			c3.2,0,3.5,2.8,3.4,5.6h5.6c0-3.1,0.2-10.3-9.1-10.3c-6.2,0-9.2,2.9-9.2,8.3c0,1.7,0.5,3.4,1.5,4.8c2.4,3.1,6.2,4.9,9.2,7.2
			c1.5,1,2.3,2.3,2.3,4.1c0,2.4-1.2,3.7-3.6,3.7c-2.9,0-3.8-2.2-3.7-5.3v-1.8h-5.9v2.3c0,5.6,2.5,9.5,9.5,9.5c5.7,0,9.7-3.1,9.7-9
			c0-2.7-0.6-4.6-2.6-6.6C52.6,366,49.1,363.7,47.1,362.5 M88,371.1c0,3,0,7.3-4.2,7.3c-4,0-4.2-4.2-4.2-6.8V363
			c0-2.4-0.4-7.9,4.2-7.9c4.3,0,4.2,5.6,4.2,8.1V371.1z M83.8,350.3c-9.4,0-10,5.9-10.2,13.9v4.5c0,8.4,0.6,14.5,10.2,14.5
			c9.6,0,10.2-6.1,10.2-14.5v-4.5C93.8,356.3,93.2,350.3,83.8,350.3z M117.4,351.1h-5.9v31.4h16.7v-4.6h-10.9V351.1 M158.6,372.4
			c0,3-0.2,6-4,6c-4,0-4.2-3-4.2-6v-21.4h-5.9v21.9c0,6.9,2.3,10.2,10,10.2c7.7,0,9.9-3.3,9.9-10.2v-21.9h-5.9V372.4"/>
	</g>
	<path class="st1" d="M187.1,388.7h6.9v26.8h5.9v-26.8h6.8v-4.6h-19.5V388.7"/>
	<g transform="translate(62 48)">
		<defs>
			<filter id="Adobe_OpacityMaskFilter_1_" filterUnits="userSpaceOnUse" x="160.3" y="335.3" width="117.5" height="32.9">
				<feColorMatrix  type="matrix" values="1 0 0 0 0  0 1 0 0 0  0 0 1 0 0  0 0 0 1 0"/>
			</filter>
		</defs>
		<mask maskUnits="userSpaceOnUse" x="160.3" y="335.3" width="117.5" height="32.9" id="d_1_">
			<g class="st5">
				<path id="c_1_" class="st3" d="M160.3,335.3h117.5V368H160.3V335.3z"/>
			</g>
		</mask>
		<path class="st6" d="M160.3,367.4h5.9v-31.4h-5.9V367.4z M198.2,356.1c0,3,0,7.3-4.2,7.3c-4,0-4.2-4.2-4.2-6.8V348
			c0-2.4-0.4-7.9,4.2-7.9c4.3,0,4.2,5.6,4.2,8.1C198.2,348.1,198.2,356.1,198.2,356.1z M194,335.3c-9.4,0-10,5.9-10.2,13.9v4.5
			c0,8.4,0.6,14.5,10.2,14.5c9.6,0,10.2-6.1,10.2-14.5v-4.5C204,341.3,203.3,335.3,194,335.3z M235.7,342.2c0,2.8,0.1,5.8,0.3,8.8
			c0.2,3,0.4,6.1,0.6,8.9h-0.1c-1.4-5.1-2.7-8.8-4.2-12.5l-4.6-11.4h-6.1v31.4h5.9v-5.9c0-2.5-0.1-5.6-0.3-8.8
			c-0.2-3.2-0.4-6.4-0.6-8.9h0.1c1.4,4.9,2.6,8.7,4.2,12.5l4.6,11.2h6.1v-31.4h-5.9L235.7,342.2 M275.1,352.6
			c-1.6-1.6-5.2-3.9-7.1-5.1c-1.8-1.2-3.3-2.1-3.3-4.5c0-2.1,1.3-2.9,3.2-2.9c3.2,0,3.5,2.8,3.4,5.6h5.6c0-3.1,0.2-10.3-9.1-10.3
			c-6.2,0-9.2,2.9-9.2,8.3c0,1.7,0.5,3.4,1.5,4.8c2.4,3.1,6.2,4.9,9.2,7.2c1.5,1,2.3,2.3,2.3,4.1c0,2.4-1.2,3.7-3.6,3.7
			c-2.9,0-3.8-2.2-3.7-5.3v-1.8h-5.9v2.3c0,5.6,2.5,9.5,9.5,9.5c5.7,0,9.7-3.1,9.7-9C277.8,356.4,277.1,354.6,275.1,352.6"/>
	</g>
	<path class="st1" d="M20.7,415.2h6.4v-82.8h-6.4V415.2z"/>
</g>
</svg>
